#!OML:ASF I:\Actors\actors\Patient Classification 2\Patient 1\Session 1\actor1.ASF
:FULLY-SPECIFIED
:DEGREES
95
root -0.639834 18.6932 5.58765 2.62001 -5.95131 -0.516616
lowerback 0.878341 1.78515 -1.98918
upperback -2.78838 2.33535 0.152737
thorax -3.4452 1.22053 1.17855
lowerneck -12.4874 -2.50821 -1.19571
upperneck 26.9178 -4.27678 3.40448
head 10.8222 -1.6775 0.875467
rclavicle -9.80257e-015 -4.77083e-015
rhumerus -48.9456 -0.506733 -86.5376
rradius 43.1055
rwrist 15.962
rhand -11.5935 -29.695
rfingers 7.12502
rthumb 14.4487 -59.172
lclavicle -9.80257e-015 -4.77083e-015
lhumerus -43.7353 -3.66618 91.3824
lradius 39.1813
lwrist 0.0821747
lhand -13.4213 -31.3186
lfingers 7.12502
lthumb 12.6871 -1.72397
rfemur 3.67129 11.9869 13.8368
rtibia 1.11319e-014
rfoot -18.6586 -15.1427
rtoes -6.99294
lfemur -4.59637 -3.83673 -14.6467
ltibia 21.1172
lfoot -25.4195 17.6131
ltoes -52.8735
96
root -0.639556 18.6929 5.58978 2.61471 -5.9352 -0.478834
lowerback 0.867375 1.78282 -2.00894
upperback -2.78468 2.33171 0.143524
thorax -3.43548 1.21901 1.18071
lowerneck -12.4809 -2.52806 -1.23918
upperneck 26.9288 -4.3087 3.45207
head 10.8282 -1.69073 0.895949
rclavicle -6.18096e-015 1.0138e-014
rhumerus -48.9164 -0.694476 -86.4101
rradius 43.2521
rwrist 16.3783
rhand -10.6439 -30.0685
rfingers 7.12502
rthumb 15.3635 -59.4777
lclavicle -6.18096e-015 1.0138e-014
lhumerus -43.7447 -3.73856 91.4383
lradius 39.3159
lwrist 0.110597
lhand -13.3696 -31.2999
lfingers 7.12502
lthumb 12.7369 -1.70841
rfemur 3.68687 11.9693 13.7959
rtibia -2.06736e-014
rfoot -18.6886 -15.1127
rtoes -6.88827
lfemur -4.58506 -3.82867 -14.687
ltibia 21.1032
lfoot -25.37 17.5965
ltoes -52.9014
97
root -0.639467 18.6923 5.59227 2.61583 -5.9227 -0.459252
lowerback 0.839786 1.78022 -2.01264
upperback -2.77825 2.32855 0.135676
thorax -3.41295 1.21719 1.17591
lowerneck -12.5092 -2.54654 -1.27541
upperneck 26.9734 -4.34724 3.51787
head 10.8543 -1.70313 0.920563
rclavicle 3.98253e-014 1.27222e-014
rhumerus -48.8849 -0.877798 -86.2978
rradius 43.3563
rwrist 16.4564
rhand -10.1656 -30.2248
rfingers 7.12502
rthumb 15.8242 -59.5981
lclavicle 3.98253e-014 1.27222e-014
lhumerus -43.7553 -3.89185 91.5097
lradius 39.4652
lwrist 0.209815
lhand -13.2618 -31.2716
lfingers 7.12502
lthumb 12.8409 -1.6866
rfemur 3.69148 11.9556 13.7746
rtibia -1.43125e-014
rfoot -18.688 -15.0924
rtoes -6.97308
lfemur -4.57364 -3.78862 -14.704
ltibia 21.0833
lfoot -25.3445 17.5497
ltoes -52.8863
98
root -0.639117 18.692 5.59415 2.61334 -5.89697 -0.450898
lowerback 0.83016 1.75774 -2.01316
upperback -2.78088 2.29875 0.137426
thorax -3.40921 1.20236 1.1795
lowerneck -12.52 -2.53988 -1.27267
upperneck 27.0041 -4.34177 3.52374
head 10.8679 -1.69915 0.922879
rclavicle 1.01877e-015 1.45113e-014
rhumerus -48.8552 -1.04884 -86.1962
rradius 43.3617
rwrist 16.1205
rhand -10.3698 -30.0412
rfingers 7.12502
rthumb 15.6276 -59.43
lclavicle 1.01877e-015 1.45113e-014
lhumerus -43.7962 -4.09878 91.617
lradius 39.6793
lwrist 0.443769
lhand -13.2124 -31.241
lfingers 7.12502
lthumb 12.8884 -1.65898
rfemur 3.70562 11.9298 13.7664
rtibia -7.95139e-015
rfoot -18.6692 -15.0887
rtoes -7.17883
lfemur -4.55679 -3.8152 -14.7152
ltibia 21.0623
lfoot -25.3736 17.5397
ltoes -52.852
99
root -0.638919 18.6921 5.59565 2.61689 -5.86832 -0.441859
lowerback 0.817465 1.72568 -2.01508
upperback -2.78089 2.25646 0.147767
thorax -3.40098 1.18143 1.19334
lowerneck -12.5042 -2.51867 -1.27818
upperneck 26.9905 -4.31064 3.5271
head 10.8589 -1.6856 0.929263
rclavicle -7.73397e-015 -9.24349e-015
rhumerus -48.83 -1.21714 -86.079
rradius 43.3762
rwrist 15.6329
rhand -10.8784 -29.6846
rfingers 7.12502
rthumb 15.1377 -59.111
lclavicle -7.73397e-015 -9.24349e-015
lhumerus -43.8159 -4.26182 91.7282
lradius 39.8976
lwrist 0.69469
lhand -13.2119 -31.275
lfingers 7.12502
lthumb 12.889 -1.69301
rfemur 3.71496 11.9003 13.758
rtibia 2.38542e-014
rfoot -18.6822 -15.1031
rtoes -7.37721
lfemur -4.54696 -3.81117 -14.7226
ltibia 21.0427
lfoot -25.3673 17.5169
ltoes -52.7903
100
root -0.63861 18.6921 5.59845 2.62419 -5.88656 -0.431276
lowerback 0.781789 1.71773 -2.02204
upperback -2.75557 2.24718 0.165004
thorax -3.35528 1.17668 1.21699
lowerneck -12.5293 -2.4943 -1.2535
upperneck 26.9568 -4.26639 3.47877
head 10.8481 -1.66879 0.913024
rclavicle 1.15854e-014 1.03368e-014
rhumerus -48.7548 -1.40764 -85.9107
rradius 43.4242
rwrist 15.4463
rhand -11.1652 -29.3764
rfingers 7.12502
rthumb 14.8613 -58.8234
lclavicle 1.15854e-014 1.03368e-014
lhumerus -43.7712 -4.47535 91.8702
lradius 40.0809
lwrist 0.893804
lhand -13.223 -31.3312
lfingers 7.12502
lthumb 12.8782 -1.74854
rfemur 3.71313 11.917 13.7427
rtibia -1.27222e-014
rfoot -18.7093 -15.1114
rtoes -7.48707
lfemur -4.52759 -3.76126 -14.7362
ltibia 21.0224
lfoot -25.3684 17.4933
ltoes -52.755
101
root -0.638138 18.6919 5.6011 2.63734 -5.91025 -0.426256
lowerback 0.761822 1.72088 -2.02983
upperback -2.73724 2.2524 0.18623
thorax -3.32644 1.17943 1.24396
lowerneck -12.5464 -2.49118 -1.23787
upperneck 26.9178 -4.24875 3.42551
head 10.8346 -1.6658 0.893151
rclavicle 2.27422e-014 3.08116e-015
rhumerus -48.675 -1.62668 -85.711
rradius 43.509
rwrist 15.5241
rhand -11.1895 -29.2375
rfingers 7.12502
rthumb 14.838 -58.6863
lclavicle 2.27422e-014 3.08116e-015
lhumerus -43.6953 -4.71699 92.041
lradius 40.2234
lwrist 1.06633
lhand -13.1912 -31.3621
lfingers 7.12502
lthumb 12.9088 -1.78135
rfemur 3.70045 11.9388 13.7297
rtibia 0
rfoot -18.6974 -15.1065
rtoes -7.56827
lfemur -4.51952 -3.73155 -14.7474
ltibia 21.0058
lfoot -25.3707 17.4942
ltoes -52.801
102
root -0.637995 18.6912 5.60271 2.65951 -5.9098 -0.41739
lowerback 0.751153 1.70109 -2.06009
upperback -2.73653 2.22638 0.218075
thorax -3.32123 1.16769 1.29497
lowerneck -12.5412 -2.48544 -1.26613
upperneck 26.8907 -4.22965 3.41509
head 10.8231 -1.66169 0.8967
rclavicle 2.02885e-014 -3.57812e-015
rhumerus -48.624 -1.77132 -85.5349
rradius 43.6616
rwrist 15.5048
rhand -11.0177 -29.1967
rfingers 7.12502
rthumb 15.0034 -58.6331
lclavicle 2.02885e-014 -3.57812e-015
lhumerus -43.6416 -4.81985 92.1679
lradius 40.3657
lwrist 1.17222
lhand -13.1831 -31.3819
lfingers 7.12502
lthumb 12.9167 -1.80167
rfemur 3.67735 11.9354 13.7108
rtibia -1.59028e-015
rfoot -18.6933 -15.0666
rtoes -7.43451
lfemur -4.54076 -3.66778 -14.7497
ltibia 20.9961
lfoot -25.3192 17.4583
ltoes -52.8232
103
root -0.637975 18.6899 5.60547 2.67215 -5.93129 -0.396425
lowerback 0.716171 1.6807 -2.10359
upperback -2.71978 2.19979 0.245397
thorax -3.28598 1.15554 1.34983
lowerneck -12.5794 -2.47161 -1.31112
upperneck 26.8962 -4.21013 3.45306
head 10.8342 -1.65228 0.920155
rclavicle 1.93504e-014 -4.07509e-015
rhumerus -48.5628 -1.83808 -85.3901
rradius 43.8527
rwrist 15.3843
rhand -10.804 -29.017
rfingers 7.12502
rthumb 15.2093 -58.438
lclavicle 1.93504e-014 -4.07509e-015
lhumerus -43.6222 -4.92822 92.2783
lradius 40.5954
lwrist 1.26802
lhand -13.1987 -31.3807
lfingers 7.12502
lthumb 12.9017 -1.79956
rfemur 3.66486 11.9542 13.6777
rtibia 1.27222e-014
rfoot -18.7524 -15.0001
rtoes -7.14079
lfemur -4.54768 -3.60193 -14.7671
ltibia 20.9932
lfoot -25.3043 17.4076
ltoes -52.7711
104
root -0.637635 18.6893 5.60902 2.66831 -5.97258 -0.396357
lowerback 0.692895 1.67841 -2.10624
upperback -2.69321 2.19802 0.267298
thorax -3.24629 1.15447 1.37514
lowerneck -12.6456 -2.46857 -1.35121
upperneck 26.9112 -4.21656 3.52272
head 10.8559 -1.64986 0.950516
rclavicle -2.52332e-014 1.98785e-015
rhumerus -48.5342 -1.92365 -85.2592
rradius 44.127
rwrist 15.2292
rhand -10.7299 -28.9388
rfingers 7.12502
rthumb 15.2807 -58.3543
lclavicle -2.52332e-014 1.98785e-015
lhumerus -43.6117 -5.11715 92.4159
lradius 40.8916
lwrist 1.42221
lhand -13.1326 -31.345
lfingers 7.12502
lthumb 12.9654 -1.76789
rfemur 3.67063 11.9955 13.6745
rtibia -1.11319e-014
rfoot -18.7621 -14.9921
rtoes -7.37537
lfemur -4.52581 -3.52825 -14.7669
ltibia 20.9883
lfoot -25.3019 17.3725
ltoes -52.8127
105
root -0.637296 18.6893 5.61157 2.65272 -6.00449 -0.396069
lowerback 0.70793 1.67046 -2.10316
upperback -2.69961 2.18791 0.296026
thorax -3.26201 1.14996 1.40274
lowerneck -12.5895 -2.4619 -1.40798
upperneck 26.8929 -4.20855 3.57852
head 10.8403 -1.64639 0.981965
rclavicle 2.81933e-014 1.12313e-014
rhumerus -48.613 -1.98902 -85.1237
rradius 44.5395
rwrist 15.0311
rhand -10.4729 -29.1009
rfingers 7.12502
rthumb 15.5283 -58.4974
lclavicle 2.81933e-014 1.12313e-014
lhumerus -43.658 -5.32319 92.5909
lradius 41.1952
lwrist 1.6498
lhand -13.134 -31.3465
lfingers 7.12502
lthumb 12.964 -1.76929
rfemur 3.68861 12.0289 13.6781
rtibia 0
rfoot -18.712 -15.0303
rtoes -7.91336
lfemur -4.49226 -3.47724 -14.7693
ltibia 20.9791
lfoot -25.2956 17.3762
ltoes -52.8899
106
root -0.636537 18.6887 5.61368 2.6363 -6.04578 -0.3386
lowerback 0.713862 1.66359 -2.13799
upperback -2.73372 2.17758 0.299857
thorax -3.30178 1.14643 1.4257
lowerneck -12.3645 -2.46455 -1.43084
upperneck 26.8091 -4.20621 3.58616
head 10.7649 -1.65116 0.991216
rclavicle 3.58123e-015 -6.16232e-015
rhumerus -48.7531 -1.99018 -85.0105
rradius 45.0246
rwrist 14.7622
rhand -10.1547 -29.33
rfingers 7.12502
rthumb 15.8347 -58.7024
lclavicle 3.58123e-015 -6.16232e-015
lhumerus -43.754 -5.58309 92.7834
lradius 41.4875
lwrist 1.87417
lhand -13.2432 -31.4275
lfingers 7.12502
lthumb 12.8588 -1.84361
rfemur 3.69953 12.0684 13.6132
rtibia -4.77083e-015
rfoot -18.7018 -15.038
rtoes -8.00187
lfemur -4.46212 -3.46795 -14.8442
ltibia 20.9767
lfoot -25.3329 17.413
ltoes -52.8801
